# xmcd CD database file
#
# Track frame offsets:
#	150
#	7101
#	24261
#	44060
#	63652
#	88111
#	117485
#	144056
#
# Disc length: 2031 seconds
#
# Revision: 0
# Processed by: cddbd v1.5.2PL0 Copyright (c) Steve Scherf et al.
# Submitted via: CDex 1.70beta2
#
DISCID=6a07ed08
DTITLE=Dwight Sills - Short Stories
DYEAR=2015
DGENRE=Jazz
TTITLE0=Opening...
TTITLE1=Two Kids
TTITLE2=628 Woodland ... and Travels Beyond
TTITLE3=Homecoming
TTITLE4=In With the Out Crowd
TTITLE5=End of the Serpent
TTITLE6=Will D
TTITLE7=Closing (When All Is Said and Done ... Love Still Remains)
EXTD=YEAR: 2015
EXTT0=
EXTT1=
EXTT2=
EXTT3=
EXTT4=
EXTT5=
EXTT6=
EXTT7=
PLAYORDER=
